<svg xmlns="http://www.w3.org/2000/svg" xmlns:xlink="http://www.w3.org/1999/xlink" width="50" zoomAndPan="magnify" viewBox="0 0 37.5 37.499999" height="50" preserveAspectRatio="xMidYMid meet" version="1.0"><defs><g/><clipPath id="8054f12ee0"><path d="M 2 24 L 35 24 L 35 25.847656 L 2 25.847656 Z M 2 24 " clip-rule="nonzero"/></clipPath><clipPath id="64f2a6c580"><path d="M 2 25 L 35 25 L 35 25.847656 L 2 25.847656 Z M 2 25 " clip-rule="nonzero"/></clipPath><clipPath id="87f0d7d63e"><path d="M 1.796875 2.90625 L 35.101562 2.90625 L 35.101562 25.847656 L 1.796875 25.847656 Z M 1.796875 2.90625 " clip-rule="nonzero"/></clipPath></defs><path fill="#6d6e71" d="M 11.054688 21.230469 L 11.472656 21.171875 C 11.28125 20.90625 11.113281 20.621094 10.972656 20.324219 C 10.402344 20.53125 9.691406 20.894531 9.332031 21.496094 C 8.683594 22.582031 9.238281 23.945312 9.246094 23.957031 C 9.246094 23.964844 9.25 23.972656 9.253906 23.984375 L 12.394531 23.984375 L 15.519531 23.394531 C 15.679688 23.367188 15.828125 23.3125 15.96875 23.226562 C 16.105469 23.140625 16.222656 23.03125 16.320312 22.898438 C 16.414062 22.765625 16.480469 22.617188 16.519531 22.457031 C 16.558594 22.296875 16.5625 22.136719 16.539062 21.972656 C 16.511719 21.8125 16.457031 21.660156 16.371094 21.519531 C 16.289062 21.378906 16.179688 21.261719 16.046875 21.164062 C 15.917969 21.066406 15.773438 21 15.613281 20.960938 C 15.457031 20.921875 15.296875 20.917969 15.136719 20.941406 L 11.089844 21.480469 C 11.011719 21.484375 10.96875 21.445312 10.957031 21.367188 C 10.949219 21.289062 10.980469 21.242188 11.058594 21.226562 Z M 11.054688 21.230469 " fill-opacity="1" fill-rule="nonzero"/><path fill="#ed1c24" d="M 20.648438 3.332031 L 13.53125 3.332031 L 11.65625 14.101562 L 22.523438 14.101562 Z M 20.648438 3.332031 " fill-opacity="1" fill-rule="nonzero"/><path fill="#d30f1e" d="M 11.894531 13.015625 L 11.714844 14.027344 L 22.585938 14.027344 L 20.710938 3.261719 L 20.339844 3.261719 L 21.777344 13.179688 C 21.777344 13.179688 15.242188 12.964844 11.894531 13.015625 Z M 11.894531 13.015625 " fill-opacity="1" fill-rule="nonzero"/><path fill="#ffffff" d="M 11.15625 20.125 C 11.3125 20.46875 11.503906 20.789062 11.726562 21.089844 C 11.734375 21.101562 11.742188 21.117188 11.746094 21.132812 L 14.089844 20.824219 C 14.085938 20.8125 14.078125 20.804688 14.074219 20.792969 C 13.796875 20.226562 13.898438 19.535156 14.316406 19.152344 C 14.675781 18.820312 15.183594 18.769531 15.589844 18.757812 L 15.804688 18.757812 C 16.160156 18.753906 16.496094 18.753906 16.800781 18.632812 C 17.140625 18.5 17.445312 18.148438 17.375 17.792969 C 17.363281 17.734375 17.382812 17.691406 17.433594 17.660156 C 17.484375 17.628906 17.53125 17.632812 17.578125 17.671875 C 17.625 17.632812 17.671875 17.628906 17.722656 17.660156 C 17.773438 17.691406 17.792969 17.734375 17.78125 17.792969 C 17.710938 18.148438 18.015625 18.5 18.355469 18.632812 C 18.660156 18.753906 18.996094 18.753906 19.351562 18.757812 L 19.570312 18.757812 C 19.972656 18.769531 20.480469 18.820312 20.839844 19.152344 C 21.257812 19.535156 21.359375 20.226562 21.082031 20.792969 C 20.851562 21.261719 20.398438 21.636719 19.800781 21.84375 C 19.28125 22.027344 18.730469 22.070312 18.199219 22.109375 L 16.953125 22.109375 L 16.773438 22.09375 C 16.769531 22.097656 16.765625 22.101562 16.757812 22.105469 C 16.777344 22.476562 16.671875 22.808594 16.445312 23.105469 C 16.21875 23.398438 15.925781 23.578125 15.5625 23.652344 L 13.769531 23.988281 L 18.117188 23.988281 C 19.53125 23.976562 20.910156 23.714844 22.101562 23.21875 C 22.179688 23.1875 22.230469 23.210938 22.261719 23.289062 C 22.292969 23.363281 22.273438 23.421875 22.199219 23.453125 C 21.632812 23.683594 21.054688 23.863281 20.460938 23.988281 L 30.628906 23.988281 C 30.738281 23.824219 30.804688 23.648438 30.832031 23.449219 C 30.859375 23.253906 30.839844 23.0625 30.777344 22.878906 C 30.714844 22.691406 30.613281 22.527344 30.472656 22.390625 C 30.332031 22.253906 30.171875 22.152344 29.984375 22.09375 L 25.667969 20.699219 C 25.652344 20.695312 25.636719 20.6875 25.625 20.675781 C 25.300781 21.203125 24.902344 21.675781 24.4375 22.082031 C 24.414062 22.101562 24.386719 22.113281 24.355469 22.113281 C 24.296875 22.113281 24.257812 22.085938 24.238281 22.03125 C 24.214844 21.976562 24.226562 21.929688 24.273438 21.890625 C 25.527344 20.78125 26.1875 19.332031 26.1875 17.703125 C 26.1875 16.476562 25.875 15.335938 25.253906 14.285156 L 11.585938 14.285156 C 10.964844 15.335938 10.65625 16.476562 10.652344 17.703125 C 10.644531 18.539062 10.808594 19.339844 11.144531 20.105469 C 11.148438 20.109375 11.152344 20.117188 11.15625 20.125 Z M 11.621094 15.476562 C 11.621094 15.390625 11.660156 15.351562 11.746094 15.351562 L 23.261719 15.351562 C 23.34375 15.347656 23.386719 15.390625 23.386719 15.476562 L 23.386719 17.035156 C 23.386719 17.1875 23.359375 17.332031 23.300781 17.472656 C 23.242188 17.613281 23.160156 17.734375 23.054688 17.84375 C 22.949219 17.949219 22.828125 18.035156 22.6875 18.09375 C 22.550781 18.148438 22.40625 18.179688 22.257812 18.179688 L 19.757812 18.179688 C 19.609375 18.179688 19.464844 18.148438 19.328125 18.09375 C 19.1875 18.035156 19.066406 17.949219 18.960938 17.84375 C 18.855469 17.734375 18.773438 17.613281 18.714844 17.472656 C 18.65625 17.332031 18.628906 17.1875 18.628906 17.035156 L 18.628906 16.550781 L 16.394531 16.550781 L 16.394531 17.035156 C 16.394531 17.1875 16.367188 17.332031 16.308594 17.472656 C 16.25 17.613281 16.167969 17.738281 16.0625 17.84375 C 15.957031 17.953125 15.832031 18.035156 15.695312 18.09375 C 15.554688 18.152344 15.410156 18.183594 15.261719 18.183594 L 12.753906 18.183594 C 12.601562 18.183594 12.457031 18.152344 12.320312 18.09375 C 12.179688 18.035156 12.058594 17.953125 11.953125 17.84375 C 11.84375 17.738281 11.765625 17.613281 11.707031 17.472656 C 11.648438 17.332031 11.621094 17.1875 11.621094 17.035156 Z M 11.621094 15.476562 " fill-opacity="1" fill-rule="nonzero"/><path fill="#e6e7e8" d="M 23.261719 15.351562 C 23.34375 15.347656 23.386719 15.390625 23.386719 15.476562 L 23.386719 17.035156 C 23.386719 17.265625 23.324219 17.480469 23.195312 17.671875 C 23.046875 20.023438 21.75 22.753906 16.558594 22.933594 C 16.332031 23.324219 16.003906 23.566406 15.5625 23.652344 L 13.769531 23.988281 L 18.117188 23.988281 C 19.53125 23.976562 20.910156 23.714844 22.101562 23.21875 C 22.179688 23.1875 22.230469 23.210938 22.261719 23.289062 C 22.292969 23.363281 22.273438 23.421875 22.199219 23.453125 C 21.632812 23.683594 21.054688 23.863281 20.460938 23.988281 L 24.351562 23.988281 L 25.507812 23.148438 C 25.507812 23.148438 25.988281 21.980469 26.425781 20.945312 L 25.667969 20.703125 C 25.648438 20.695312 25.636719 20.6875 25.621094 20.675781 C 25.296875 21.207031 24.902344 21.675781 24.4375 22.082031 C 24.414062 22.105469 24.386719 22.117188 24.355469 22.117188 C 24.296875 22.117188 24.257812 22.085938 24.234375 22.03125 C 24.214844 21.976562 24.226562 21.929688 24.269531 21.890625 C 25.523438 20.78125 26.1875 19.335938 26.1875 17.707031 C 26.183594 16.476562 25.875 15.335938 25.253906 14.285156 L 22.734375 14.285156 C 22.851562 14.632812 22.945312 14.988281 23.015625 15.351562 Z M 23.261719 15.351562 " fill-opacity="1" fill-rule="nonzero"/><path fill="#ffe6bc" d="M 12.753906 17.921875 L 15.261719 17.921875 C 15.503906 17.921875 15.710938 17.835938 15.882812 17.660156 C 16.050781 17.488281 16.136719 17.277344 16.140625 17.03125 L 16.140625 16.421875 C 16.140625 16.382812 16.15625 16.347656 16.1875 16.324219 C 16.21875 16.296875 16.253906 16.289062 16.292969 16.300781 C 16.304688 16.296875 16.3125 16.296875 16.320312 16.296875 L 18.652344 16.296875 C 18.671875 16.296875 18.6875 16.300781 18.703125 16.304688 C 18.71875 16.300781 18.738281 16.296875 18.753906 16.296875 C 18.839844 16.296875 18.878906 16.339844 18.878906 16.421875 L 18.878906 17.035156 C 18.882812 17.28125 18.96875 17.488281 19.136719 17.664062 C 19.308594 17.835938 19.515625 17.921875 19.757812 17.921875 L 22.257812 17.921875 C 22.5 17.921875 22.707031 17.835938 22.878906 17.664062 C 23.050781 17.488281 23.136719 17.28125 23.136719 17.035156 L 23.136719 15.605469 L 11.871094 15.605469 L 11.871094 17.03125 C 11.871094 17.277344 11.960938 17.488281 12.132812 17.660156 C 12.300781 17.835938 12.507812 17.921875 12.753906 17.921875 Z M 12.753906 17.921875 " fill-opacity="1" fill-rule="nonzero"/><path fill="#ffe6bc" d="M 31.015625 22.796875 C 31.15625 23.207031 31.125 23.601562 30.921875 23.984375 L 33.316406 23.984375 C 33.308594 23.96875 33.308594 23.949219 33.3125 23.929688 C 33.328125 23.730469 33.277344 23.550781 33.152344 23.390625 C 33.03125 23.230469 32.871094 23.136719 32.675781 23.105469 C 32.636719 23.097656 32.597656 23.097656 32.558594 23.097656 C 32.488281 23.09375 32.417969 23.089844 32.351562 23.074219 C 32.1875 23.050781 32.078125 22.960938 32.015625 22.808594 C 31.96875 22.671875 32.015625 22.539062 32.054688 22.4375 C 32.074219 22.390625 32.089844 22.339844 32.097656 22.292969 C 32.121094 22.113281 31.933594 21.949219 31.746094 21.917969 C 31.5 21.886719 31.257812 21.917969 31.023438 22.007812 C 30.984375 22.023438 30.949219 22.019531 30.910156 22 C 30.875 21.976562 30.855469 21.941406 30.851562 21.898438 C 30.84375 21.75 30.789062 21.621094 30.691406 21.511719 C 30.589844 21.398438 30.46875 21.332031 30.320312 21.3125 C 30.175781 21.289062 30.039062 21.316406 29.914062 21.390625 C 29.785156 21.464844 29.695312 21.574219 29.644531 21.710938 L 30.058594 21.847656 C 30.539062 22 30.855469 22.3125 31.015625 22.796875 Z M 31.015625 22.796875 " fill-opacity="1" fill-rule="nonzero"/><path fill="#d30f1e" d="M 25.175781 14.027344 L 23.300781 3.257812 L 20.964844 3.257812 L 22.839844 14.027344 Z M 25.175781 14.027344 " fill-opacity="1" fill-rule="nonzero"/><path fill="#ffe6bc" d="M 3.066406 23.984375 L 8.984375 23.984375 C 8.867188 23.671875 8.480469 22.429688 9.117188 21.367188 C 9.511719 20.710938 10.261719 20.316406 10.867188 20.09375 C 10.71875 19.734375 10.605469 19.359375 10.527344 18.976562 C 10.484375 18.996094 10.441406 18.992188 10.402344 18.960938 C 10.179688 18.789062 9.929688 18.628906 9.71875 18.714844 C 9.542969 18.78125 9.453125 19 9.367188 19.210938 L 9.355469 19.242188 C 9.203125 19.617188 8.992188 19.8125 8.738281 19.824219 C 8.550781 19.835938 8.390625 19.738281 8.25 19.652344 C 8.109375 19.566406 8 19.5 7.890625 19.523438 C 7.769531 19.550781 7.691406 19.699219 7.6875 19.828125 C 7.675781 19.976562 7.722656 20.128906 7.773438 20.289062 L 7.785156 20.320312 C 7.84375 20.507812 7.902344 20.71875 7.859375 20.933594 C 7.84375 21.015625 7.796875 21.078125 7.722656 21.117188 C 7.511719 21.242188 7.160156 21.128906 7.121094 21.113281 C 7.082031 21.101562 7.046875 21.085938 7.007812 21.070312 C 6.871094 21.019531 6.742188 20.972656 6.632812 21.003906 C 6.484375 21.042969 6.402344 21.226562 6.402344 21.375 C 6.398438 21.566406 6.480469 21.761719 6.554688 21.933594 C 6.585938 22.007812 6.570312 22.0625 6.5 22.097656 C 6.273438 22.214844 6.011719 22.09375 5.84375 21.9375 C 5.71875 21.820312 5.585938 21.714844 5.480469 21.753906 C 5.414062 21.789062 5.359375 21.839844 5.316406 21.902344 C 5.238281 22 5.144531 22.109375 4.992188 22.136719 C 4.800781 22.167969 4.660156 22.042969 4.542969 21.9375 C 4.464844 21.867188 4.394531 21.800781 4.320312 21.789062 C 4.269531 21.78125 4.226562 21.792969 4.1875 21.828125 C 4.109375 21.890625 4.0625 21.976562 4.050781 22.078125 C 4.046875 22.21875 4.0625 22.359375 4.105469 22.496094 C 4.121094 22.558594 4.132812 22.621094 4.144531 22.683594 C 4.179688 22.867188 4.203125 23.203125 3.96875 23.40625 C 3.820312 23.535156 3.632812 23.558594 3.453125 23.570312 C 3.316406 23.578125 3.171875 23.589844 3.074219 23.664062 C 3.03125 23.699219 3.003906 23.746094 3.003906 23.804688 C 3 23.832031 3.007812 23.851562 3.027344 23.871094 C 3.058594 23.902344 3.074219 23.941406 3.066406 23.984375 Z M 3.066406 23.984375 " fill-opacity="1" fill-rule="nonzero"/><g clip-path="url(#8054f12ee0)"><path fill="#c49a6c" d="M 18.117188 24.242188 L 2.136719 24.242188 L 2.136719 25.496094 L 34.769531 25.496094 L 34.769531 24.242188 Z M 18.117188 24.242188 " fill-opacity="1" fill-rule="nonzero"/></g><path fill="#ffe6bc" d="M 17.121094 21.84375 L 17.085938 21.855469 L 17.222656 21.855469 C 17.21875 21.851562 17.210938 21.847656 17.203125 21.84375 C 17.175781 21.835938 17.148438 21.835938 17.121094 21.84375 Z M 17.121094 21.84375 " fill-opacity="1" fill-rule="nonzero"/><path fill="#232323" d="M 17.632812 21.855469 L 18.195312 21.855469 C 18.707031 21.816406 19.238281 21.777344 19.726562 21.605469 C 20.261719 21.417969 20.664062 21.089844 20.867188 20.679688 C 21.089844 20.222656 21.011719 19.648438 20.679688 19.34375 C 20.382812 19.070312 19.933594 19.023438 19.570312 19.015625 C 19.503906 19.015625 19.429688 19.015625 19.359375 19.011719 C 18.996094 19.011719 18.621094 19.007812 18.269531 18.871094 C 17.949219 18.746094 17.71875 18.523438 17.582031 18.203125 C 17.445312 18.523438 17.21875 18.746094 16.894531 18.871094 C 16.546875 19.007812 16.171875 19.007812 15.808594 19.011719 C 15.738281 19.011719 15.664062 19.011719 15.59375 19.015625 C 15.234375 19.023438 14.785156 19.070312 14.484375 19.34375 C 14.15625 19.644531 14.078125 20.222656 14.300781 20.679688 C 14.320312 20.71875 14.339844 20.753906 14.359375 20.789062 L 15.050781 20.699219 C 14.902344 20.445312 14.832031 20 15.035156 19.777344 C 15.148438 19.660156 15.285156 19.59375 15.449219 19.578125 C 15.609375 19.5625 15.757812 19.605469 15.890625 19.699219 C 16.042969 19.816406 16.148438 20 16.195312 20.25 C 16.398438 20.183594 16.605469 20.164062 16.816406 20.1875 C 16.996094 20.210938 17.140625 20.296875 17.246094 20.445312 C 17.328125 20.554688 17.355469 20.675781 17.332031 20.8125 C 17.324219 20.839844 17.316406 20.867188 17.308594 20.890625 C 17.296875 20.917969 17.292969 20.945312 17.289062 20.972656 C 17.289062 21 17.335938 21.035156 17.394531 21.0625 C 17.417969 21.070312 17.441406 21.078125 17.464844 21.085938 C 17.542969 21.109375 17.617188 21.144531 17.6875 21.195312 C 17.765625 21.265625 17.8125 21.355469 17.824219 21.464844 C 17.835938 21.570312 17.8125 21.667969 17.75 21.753906 C 17.71875 21.796875 17.679688 21.828125 17.632812 21.855469 Z M 17.632812 21.855469 " fill-opacity="1" fill-rule="nonzero"/><path fill="#ffe6bc" d="M 17.546875 21.597656 C 17.597656 21.523438 17.589844 21.453125 17.523438 21.390625 C 17.480469 21.359375 17.433594 21.335938 17.382812 21.324219 C 17.355469 21.3125 17.328125 21.304688 17.304688 21.292969 C 17.148438 21.234375 17.054688 21.125 17.039062 20.996094 C 17.035156 20.933594 17.042969 20.871094 17.066406 20.808594 C 17.074219 20.792969 17.078125 20.773438 17.082031 20.753906 C 17.09375 20.695312 17.082031 20.640625 17.042969 20.589844 C 16.976562 20.503906 16.890625 20.449219 16.785156 20.4375 C 16.5625 20.414062 16.347656 20.445312 16.144531 20.539062 C 16.105469 20.558594 16.066406 20.554688 16.027344 20.535156 C 15.992188 20.511719 15.96875 20.480469 15.964844 20.433594 C 15.949219 20.257812 15.898438 20.023438 15.738281 19.902344 C 15.554688 19.773438 15.382812 19.789062 15.222656 19.949219 C 15.105469 20.078125 15.171875 20.460938 15.304688 20.617188 C 15.320312 20.636719 15.332031 20.660156 15.332031 20.683594 C 15.65625 20.695312 15.945312 20.804688 16.199219 21.007812 C 16.453125 21.210938 16.625 21.46875 16.710938 21.785156 C 16.8125 21.695312 16.929688 21.632812 17.0625 21.59375 C 17.164062 21.566406 17.257812 21.578125 17.34375 21.632812 C 17.421875 21.679688 17.488281 21.667969 17.546875 21.597656 Z M 17.546875 21.597656 " fill-opacity="1" fill-rule="nonzero"/><path fill="#ff7d87" d="M 16.972656 20.226562 C 17.085938 20.273438 17.175781 20.34375 17.246094 20.441406 C 17.328125 20.550781 17.355469 20.675781 17.328125 20.808594 C 17.320312 20.835938 17.3125 20.863281 17.304688 20.890625 C 17.296875 20.914062 17.289062 20.941406 17.289062 20.96875 C 17.289062 20.996094 17.335938 21.035156 17.394531 21.058594 C 17.414062 21.066406 17.4375 21.074219 17.460938 21.082031 C 17.542969 21.105469 17.617188 21.140625 17.683594 21.195312 C 17.761719 21.265625 17.808594 21.351562 17.820312 21.460938 C 17.835938 21.566406 17.808594 21.664062 17.746094 21.75 C 17.714844 21.792969 17.675781 21.828125 17.628906 21.855469 L 18.191406 21.855469 C 18.703125 21.816406 19.234375 21.777344 19.722656 21.605469 C 20.257812 21.417969 20.660156 21.089844 20.859375 20.679688 C 21.03125 20.335938 21.039062 19.988281 20.886719 19.636719 C 20.417969 19.476562 19.941406 19.394531 19.445312 19.394531 C 18.449219 19.394531 17.554688 19.71875 16.972656 20.226562 Z M 16.972656 20.226562 " fill-opacity="1" fill-rule="nonzero"/><path fill="#ffffff" d="M 15.074219 3.257812 L 13.304688 14.027344 L 11.714844 14.027344 L 13.589844 3.257812 Z M 15.074219 3.257812 " fill-opacity="1" fill-rule="nonzero"/><path fill="#ffffff" d="M 19.289062 3.257812 L 21.054688 14.027344 L 22.644531 14.027344 L 20.769531 3.257812 Z M 19.289062 3.257812 " fill-opacity="1" fill-rule="nonzero"/><path fill="#e6e7e8" d="M 22.28125 3.257812 L 24.046875 14.027344 L 25.132812 14.027344 L 23.257812 3.257812 Z M 22.28125 3.257812 " fill-opacity="1" fill-rule="nonzero"/><path fill="#ffffff" d="M 16.582031 3.257812 L 15.765625 14.027344 L 18.539062 14.027344 L 17.71875 3.257812 Z M 16.582031 3.257812 " fill-opacity="1" fill-rule="nonzero"/><path fill="#6d6e71" d="M 21.316406 14.8125 C 20.804688 14.890625 20.332031 15.070312 19.894531 15.351562 L 23.261719 15.351562 C 23.34375 15.347656 23.386719 15.390625 23.386719 15.476562 L 23.386719 17.035156 C 23.386719 17.1875 23.359375 17.332031 23.300781 17.472656 C 23.242188 17.613281 23.160156 17.734375 23.054688 17.84375 C 22.949219 17.949219 22.828125 18.035156 22.6875 18.09375 C 22.550781 18.148438 22.40625 18.179688 22.257812 18.179688 L 19.757812 18.179688 C 19.507812 18.179688 19.28125 18.101562 19.078125 17.949219 C 19.171875 18.109375 19.289062 18.25 19.433594 18.367188 C 19.761719 18.625 20.179688 18.722656 20.589844 18.8125 L 22.707031 19.273438 C 23.148438 19.371094 23.613281 19.46875 24.050781 19.351562 C 24.851562 19.140625 25.339844 18.242188 25.300781 17.402344 C 25.269531 16.6875 24.871094 15.597656 24.238281 15.195312 C 23.445312 14.691406 22.210938 14.660156 21.316406 14.8125 Z M 21.316406 14.8125 " fill-opacity="1" fill-rule="nonzero"/><path fill="#58595b" d="M 23.015625 15.351562 L 23.261719 15.351562 C 23.34375 15.347656 23.386719 15.390625 23.386719 15.476562 L 23.386719 17.035156 C 23.386719 17.070312 23.386719 17.101562 23.382812 17.140625 C 23.382812 17.148438 23.382812 17.160156 23.378906 17.171875 C 23.378906 17.195312 23.371094 17.21875 23.367188 17.246094 C 23.367188 17.253906 23.363281 17.265625 23.359375 17.277344 C 23.355469 17.308594 23.347656 17.339844 23.335938 17.375 C 23.324219 17.40625 23.316406 17.433594 23.304688 17.464844 L 23.289062 17.492188 C 23.28125 17.515625 23.269531 17.539062 23.257812 17.558594 C 23.253906 17.566406 23.25 17.578125 23.246094 17.585938 C 23.230469 17.613281 23.214844 17.644531 23.195312 17.671875 C 23.164062 18.230469 23.058594 18.777344 22.878906 19.3125 C 23.269531 19.394531 23.671875 19.453125 24.054688 19.355469 C 24.855469 19.140625 25.34375 18.242188 25.308594 17.40625 C 25.277344 16.6875 24.878906 15.597656 24.242188 15.199219 C 23.859375 14.957031 23.378906 14.824219 22.882812 14.769531 C 22.921875 14.929688 22.972656 15.125 23.015625 15.351562 Z M 23.015625 15.351562 " fill-opacity="1" fill-rule="nonzero"/><path fill="#6d6e71" d="M 14.679688 18.8125 C 15.089844 18.722656 15.511719 18.625 15.835938 18.367188 C 16.265625 18.027344 16.460938 17.433594 16.390625 16.882812 L 16.390625 17.03125 C 16.390625 17.183594 16.363281 17.332031 16.304688 17.472656 C 16.246094 17.613281 16.164062 17.734375 16.058594 17.84375 C 15.953125 17.949219 15.832031 18.035156 15.691406 18.09375 C 15.554688 18.152344 15.410156 18.179688 15.257812 18.179688 L 12.753906 18.179688 C 12.601562 18.179688 12.457031 18.152344 12.320312 18.09375 C 12.179688 18.035156 12.058594 17.949219 11.953125 17.84375 C 11.84375 17.734375 11.765625 17.613281 11.707031 17.472656 C 11.648438 17.332031 11.621094 17.183594 11.621094 17.03125 L 11.621094 15.476562 C 11.621094 15.390625 11.660156 15.351562 11.746094 15.351562 L 15.378906 15.351562 C 14.941406 15.070312 14.46875 14.890625 13.957031 14.8125 C 13.117188 14.667969 11.972656 14.691406 11.175781 15.113281 C 10.828125 15.941406 10.65625 16.804688 10.65625 17.699219 C 10.652344 18.203125 10.710938 18.695312 10.832031 19.183594 C 10.953125 19.257812 11.082031 19.316406 11.21875 19.351562 C 11.65625 19.46875 12.117188 19.371094 12.5625 19.273438 Z M 14.679688 18.8125 " fill-opacity="1" fill-rule="nonzero"/><path fill="#6d6e71" d="M 29.984375 22.089844 L 25.667969 20.699219 C 25.652344 20.691406 25.636719 20.683594 25.625 20.671875 C 25.300781 21.203125 24.902344 21.671875 24.4375 22.078125 C 24.414062 22.101562 24.386719 22.109375 24.355469 22.113281 C 24.316406 22.113281 24.285156 22.097656 24.261719 22.066406 C 24.242188 22.046875 24.234375 22.023438 24.230469 22 C 23.667969 22.574219 23.015625 23.015625 22.273438 23.316406 C 22.28125 23.378906 22.253906 23.425781 22.199219 23.449219 C 21.933594 23.558594 21.660156 23.65625 21.382812 23.742188 C 21.277344 23.8125 21.171875 23.875 21.066406 23.9375 C 21.042969 23.953125 21.015625 23.96875 20.992188 23.984375 L 30.628906 23.984375 C 30.738281 23.820312 30.804688 23.640625 30.832031 23.445312 C 30.859375 23.25 30.839844 23.058594 30.777344 22.871094 C 30.714844 22.683594 30.613281 22.523438 30.472656 22.382812 C 30.332031 22.246094 30.171875 22.148438 29.984375 22.089844 Z M 29.984375 22.089844 " fill-opacity="1" fill-rule="nonzero"/><path fill="#e6e7e8" d="M 13.472656 13.007812 L 13.304688 14.027344 L 11.71875 14.027344 L 11.894531 13.015625 C 12.367188 13.007812 12.902344 13.003906 13.472656 13.007812 Z M 13.472656 13.007812 " fill-opacity="1" fill-rule="nonzero"/><path fill="#e6e7e8" d="M 22.644531 14.027344 L 21.054688 14.027344 L 20.914062 13.152344 L 20.929688 13.152344 C 21.035156 13.15625 21.136719 13.136719 21.230469 13.09375 C 21.328125 13.050781 21.410156 12.992188 21.480469 12.910156 C 21.550781 12.832031 21.601562 12.742188 21.632812 12.640625 C 21.660156 12.535156 21.667969 12.433594 21.652344 12.328125 L 20.339844 3.261719 L 20.769531 3.261719 Z M 22.644531 14.027344 " fill-opacity="1" fill-rule="nonzero"/><path fill="#e6e7e8" d="M 18.539062 14.027344 L 15.761719 14.027344 L 15.839844 13.03125 C 16.742188 13.046875 17.644531 13.066406 18.464844 13.089844 Z M 18.539062 14.027344 " fill-opacity="1" fill-rule="nonzero"/><path fill="#e6e7e8" d="M 13.472656 13.007812 L 13.304688 14.027344 L 11.71875 14.027344 L 11.890625 13.015625 C 12.367188 13.007812 12.902344 13.003906 13.472656 13.007812 Z M 13.472656 13.007812 " fill-opacity="1" fill-rule="nonzero"/><path fill="#58595b" d="M 30.753906 23.742188 C 29.953125 23.707031 29.171875 23.558594 28.410156 23.300781 C 27.882812 23.117188 27.355469 22.871094 26.988281 22.445312 C 26.660156 22.058594 26.5 21.492188 26.664062 21.019531 L 25.664062 20.699219 C 25.648438 20.691406 25.632812 20.683594 25.621094 20.671875 C 25.296875 21.203125 24.902344 21.671875 24.433594 22.078125 C 24.410156 22.101562 24.382812 22.109375 24.351562 22.113281 C 24.3125 22.113281 24.28125 22.097656 24.257812 22.066406 C 24.238281 22.046875 24.230469 22.023438 24.226562 22 C 23.664062 22.574219 23.011719 23.015625 22.273438 23.316406 C 22.277344 23.378906 22.253906 23.425781 22.195312 23.449219 C 21.929688 23.558594 21.660156 23.65625 21.378906 23.742188 C 21.273438 23.8125 21.171875 23.875 21.0625 23.9375 C 21.039062 23.953125 21.015625 23.96875 20.988281 23.984375 L 30.628906 23.984375 C 30.679688 23.90625 30.71875 23.828125 30.753906 23.742188 Z M 30.753906 23.742188 " fill-opacity="1" fill-rule="nonzero"/><path fill="#e2c191" d="M 23.136719 17.035156 L 23.136719 15.605469 L 22.585938 15.605469 L 22.585938 17.085938 L 19.839844 17.519531 C 19.839844 17.519531 19.183594 17.648438 18.882812 17.039062 C 18.882812 17.285156 18.96875 17.492188 19.140625 17.667969 C 19.308594 17.839844 19.515625 17.929688 19.757812 17.929688 L 22.257812 17.929688 C 22.5 17.929688 22.707031 17.839844 22.878906 17.664062 C 23.050781 17.492188 23.136719 17.28125 23.136719 17.035156 Z M 23.136719 17.035156 " fill-opacity="1" fill-rule="nonzero"/><path fill="#e2c191" d="M 10.863281 20.082031 C 10.8125 20.070312 10.765625 20.0625 10.714844 20.0625 C 10.496094 20.191406 10.28125 20.183594 10.070312 20.039062 C 9.886719 19.910156 9.707031 19.695312 9.75 19.46875 C 9.613281 19.703125 9.289062 19.824219 9.058594 19.683594 C 9.132812 19.78125 9.273438 19.859375 9.304688 19.976562 C 9.359375 20.183594 9.316406 20.367188 9.175781 20.527344 C 9.046875 20.671875 8.875 20.789062 8.679688 20.792969 L 8.605469 20.792969 C 8.851562 20.96875 8.863281 21.390625 8.632812 21.582031 C 8.726562 21.800781 8.785156 22.027344 8.796875 22.265625 C 8.847656 21.941406 8.953125 21.640625 9.117188 21.363281 C 9.511719 20.703125 10.261719 20.308594 10.867188 20.085938 C 10.867188 20.085938 10.863281 20.082031 10.863281 20.082031 Z M 10.863281 20.082031 " fill-opacity="1" fill-rule="nonzero"/><path fill="#e2c191" d="M 8.984375 23.984375 C 8.832031 23.566406 8.757812 23.132812 8.761719 22.6875 C 8.734375 22.808594 8.660156 22.894531 8.546875 22.941406 C 8.378906 23 8.1875 22.871094 8.109375 22.710938 C 8.03125 22.546875 8.042969 22.351562 8.046875 22.167969 C 7.960938 22.257812 7.859375 22.292969 7.738281 22.269531 C 7.625 22.242188 7.519531 22.203125 7.421875 22.140625 C 7.277344 22.0625 7.070312 22.070312 6.925781 21.996094 C 7.074219 22.15625 7.21875 22.347656 7.222656 22.566406 C 7.222656 22.789062 7.003906 23.011719 6.800781 22.933594 C 6.722656 22.890625 6.65625 22.835938 6.601562 22.761719 C 6.550781 22.6875 6.484375 22.632812 6.398438 22.601562 C 6.3125 22.578125 6.207031 22.625 6.195312 22.710938 C 6.296875 22.800781 6.355469 22.910156 6.378906 23.046875 C 6.402344 23.195312 6.34375 23.300781 6.203125 23.359375 C 6.078125 23.394531 5.863281 23.300781 5.886719 23.175781 C 5.84375 23.378906 5.742188 23.546875 5.585938 23.679688 C 5.425781 23.808594 5.242188 23.875 5.035156 23.875 C 4.828125 23.867188 4.648438 23.789062 4.496094 23.648438 C 4.34375 23.507812 4.25 23.335938 4.21875 23.128906 L 4.136719 23.132812 C 4.105469 23.242188 4.050781 23.332031 3.96875 23.40625 C 3.820312 23.53125 3.632812 23.554688 3.453125 23.566406 C 3.316406 23.578125 3.171875 23.589844 3.074219 23.660156 C 3.03125 23.695312 3.007812 23.746094 3.003906 23.804688 C 3 23.828125 3.007812 23.851562 3.027344 23.871094 C 3.0625 23.898438 3.074219 23.9375 3.070312 23.984375 Z M 8.984375 23.984375 " fill-opacity="1" fill-rule="nonzero"/><path fill="#e2c191" d="M 30.40625 21.984375 C 30.460938 22.085938 30.535156 22.175781 30.628906 22.246094 C 30.71875 22.320312 30.824219 22.367188 30.9375 22.394531 C 31.050781 22.421875 31.164062 22.421875 31.277344 22.398438 C 31.390625 22.375 31.496094 22.328125 31.589844 22.257812 C 31.589844 22.359375 31.613281 22.453125 31.65625 22.542969 C 31.699219 22.632812 31.761719 22.707031 31.835938 22.769531 C 31.914062 22.832031 32 22.871094 32.097656 22.894531 C 32.191406 22.914062 32.289062 22.914062 32.382812 22.894531 C 32.660156 22.828125 32.917969 23.039062 33.125 23.234375 C 33.34375 23.441406 33.457031 23.695312 33.464844 24 C 32.589844 24.160156 31.714844 24.152344 30.839844 23.980469 C 30.976562 23.636719 31.097656 23.246094 30.960938 22.902344 C 30.894531 22.75 30.800781 22.609375 30.691406 22.488281 C 30.570312 22.347656 30.527344 22.125 30.40625 21.984375 Z M 30.40625 21.984375 " fill-opacity="1" fill-rule="nonzero"/><path fill="#58595b" d="M 15.515625 23.398438 C 15.667969 23.367188 15.8125 23.308594 15.941406 23.226562 C 16.074219 23.140625 16.1875 23.035156 16.277344 22.90625 C 16.371094 22.777344 16.433594 22.636719 16.472656 22.484375 C 16.511719 22.332031 16.519531 22.175781 16.5 22.019531 C 16.566406 23.097656 12.320312 23.453125 12.320312 23.453125 L 9.097656 23.453125 C 9.132812 23.628906 9.179688 23.796875 9.242188 23.960938 C 9.246094 23.96875 9.25 23.976562 9.25 23.988281 L 12.390625 23.988281 Z M 15.515625 23.398438 " fill-opacity="1" fill-rule="nonzero"/><path fill="#939598" d="M 11.257812 20.851562 C 11.152344 20.679688 11.058594 20.503906 10.972656 20.324219 C 10.402344 20.53125 9.691406 20.894531 9.332031 21.496094 C 9.003906 22.046875 8.984375 22.667969 9.042969 23.144531 C 9.042969 23.144531 9.578125 20.925781 11.257812 20.851562 Z M 11.257812 20.851562 " fill-opacity="1" fill-rule="nonzero"/><g clip-path="url(#64f2a6c580)"><path fill="#a97c50" d="M 2.132812 25.097656 L 34.765625 25.097656 L 34.765625 25.496094 L 2.132812 25.496094 Z M 2.132812 25.097656 " fill-opacity="1" fill-rule="nonzero"/></g><path fill="#ffdebd" d="M 34.765625 24.242188 L 2.136719 24.242188 L 2.136719 24.507812 L 34.769531 24.507812 Z M 34.765625 24.242188 " fill-opacity="1" fill-rule="nonzero"/><path fill="#232323" d="M 20.582031 19.191406 C 20.5 19.046875 20.246094 19.132812 20.128906 19.171875 C 19.789062 19.28125 19.480469 19.453125 19.207031 19.6875 C 19.054688 19.804688 18.925781 19.941406 18.8125 20.097656 C 18.695312 20.257812 18.617188 20.433594 18.582031 20.628906 C 18.578125 20.664062 18.621094 20.667969 18.636719 20.644531 C 18.75 20.496094 18.878906 20.363281 19.023438 20.246094 C 19.160156 20.136719 19.285156 20.019531 19.425781 19.921875 C 19.707031 19.730469 20.007812 19.570312 20.320312 19.445312 C 20.421875 19.398438 20.675781 19.359375 20.582031 19.191406 Z M 20.582031 19.191406 " fill-opacity="1" fill-rule="nonzero"/><path fill="#00aeef" d="M 19.324219 15.949219 L 22.691406 15.949219 L 22.691406 16.246094 C 22.691406 16.421875 22.660156 16.59375 22.59375 16.757812 C 22.523438 16.921875 22.429688 17.066406 22.304688 17.191406 C 22.183594 17.316406 22.039062 17.410156 21.878906 17.480469 C 21.714844 17.546875 21.546875 17.582031 21.375 17.578125 L 20.640625 17.578125 C 20.464844 17.578125 20.296875 17.546875 20.136719 17.476562 C 19.972656 17.410156 19.832031 17.3125 19.707031 17.1875 C 19.585938 17.0625 19.488281 16.917969 19.421875 16.753906 C 19.355469 16.59375 19.324219 16.421875 19.324219 16.246094 Z M 19.324219 15.949219 " fill-opacity="1" fill-rule="nonzero"/><path fill="#ed1c24" d="M 12.320312 15.949219 L 15.691406 15.949219 L 15.691406 16.246094 C 15.691406 16.421875 15.660156 16.59375 15.589844 16.757812 C 15.523438 16.921875 15.429688 17.066406 15.304688 17.191406 C 15.179688 17.316406 15.039062 17.410156 14.875 17.480469 C 14.714844 17.546875 14.546875 17.582031 14.371094 17.578125 L 13.640625 17.578125 C 13.464844 17.578125 13.296875 17.546875 13.136719 17.476562 C 12.972656 17.410156 12.832031 17.3125 12.707031 17.1875 C 12.582031 17.0625 12.488281 16.917969 12.421875 16.753906 C 12.355469 16.59375 12.320312 16.421875 12.320312 16.246094 Z M 12.320312 15.949219 " fill-opacity="1" fill-rule="nonzero"/><path fill="#232323" d="M 12.753906 18.265625 L 15.261719 18.265625 C 15.421875 18.265625 15.578125 18.234375 15.726562 18.171875 C 15.875 18.109375 16.007812 18.019531 16.121094 17.902344 C 16.234375 17.789062 16.324219 17.65625 16.386719 17.503906 C 16.449219 17.351562 16.480469 17.195312 16.480469 17.03125 L 16.480469 16.636719 L 18.546875 16.636719 L 18.546875 17.035156 C 18.546875 17.195312 18.578125 17.355469 18.636719 17.503906 C 18.699219 17.65625 18.789062 17.789062 18.902344 17.902344 C 19.015625 18.019531 19.148438 18.109375 19.296875 18.171875 C 19.445312 18.234375 19.597656 18.265625 19.761719 18.265625 L 22.257812 18.265625 C 22.417969 18.265625 22.574219 18.234375 22.722656 18.171875 C 22.871094 18.109375 23 18.019531 23.117188 17.902344 C 23.230469 17.789062 23.316406 17.65625 23.378906 17.503906 C 23.441406 17.355469 23.472656 17.195312 23.472656 17.035156 L 23.472656 15.476562 C 23.472656 15.335938 23.402344 15.265625 23.261719 15.265625 L 11.746094 15.265625 C 11.605469 15.265625 11.535156 15.335938 11.535156 15.476562 L 11.535156 17.03125 C 11.535156 17.195312 11.566406 17.351562 11.628906 17.503906 C 11.691406 17.652344 11.777344 17.789062 11.890625 17.902344 C 12.007812 18.019531 12.136719 18.109375 12.285156 18.171875 C 12.4375 18.234375 12.589844 18.265625 12.753906 18.265625 Z M 11.957031 15.691406 L 23.050781 15.691406 L 23.050781 17.035156 C 23.050781 17.253906 22.972656 17.445312 22.816406 17.601562 C 22.664062 17.757812 22.476562 17.835938 22.257812 17.839844 L 19.757812 17.839844 C 19.539062 17.839844 19.351562 17.757812 19.199219 17.601562 C 19.042969 17.445312 18.964844 17.253906 18.964844 17.035156 L 18.964844 16.421875 C 18.964844 16.28125 18.894531 16.210938 18.753906 16.210938 C 18.738281 16.210938 18.722656 16.214844 18.707031 16.21875 C 18.6875 16.214844 18.671875 16.210938 18.65625 16.210938 L 16.324219 16.210938 C 16.316406 16.210938 16.304688 16.210938 16.296875 16.210938 C 16.285156 16.210938 16.277344 16.210938 16.269531 16.210938 C 16.128906 16.210938 16.058594 16.28125 16.058594 16.421875 L 16.058594 17.03125 C 16.058594 17.253906 15.980469 17.445312 15.824219 17.601562 C 15.667969 17.757812 15.480469 17.839844 15.261719 17.839844 L 12.753906 17.839844 C 12.53125 17.839844 12.34375 17.757812 12.191406 17.601562 C 12.035156 17.445312 11.957031 17.253906 11.957031 17.03125 Z M 11.957031 15.691406 " fill-opacity="1" fill-rule="nonzero"/><g clip-path="url(#87f0d7d63e)"><path fill="#232323" d="M 34.894531 23.902344 L 33.648438 23.902344 C 33.660156 23.621094 33.574219 23.371094 33.394531 23.152344 C 33.21875 22.9375 32.988281 22.808594 32.714844 22.765625 C 32.667969 22.761719 32.621094 22.757812 32.574219 22.757812 C 32.519531 22.757812 32.46875 22.753906 32.417969 22.742188 C 32.386719 22.738281 32.355469 22.726562 32.332031 22.699219 C 32.335938 22.652344 32.347656 22.605469 32.371094 22.5625 C 32.398438 22.492188 32.417969 22.417969 32.433594 22.34375 C 32.484375 21.957031 32.148438 21.640625 31.796875 21.585938 C 31.574219 21.554688 31.355469 21.566406 31.136719 21.621094 C 31.074219 21.433594 30.960938 21.28125 30.804688 21.160156 C 30.648438 21.042969 30.472656 20.976562 30.277344 20.96875 C 30.082031 20.957031 29.898438 21.003906 29.730469 21.109375 C 29.5625 21.210938 29.4375 21.351562 29.355469 21.535156 L 25.871094 20.40625 C 26.316406 19.558594 26.53125 18.660156 26.527344 17.699219 C 26.523438 16.398438 26.1875 15.191406 25.527344 14.078125 L 23.617188 3.09375 C 23.613281 3.085938 23.613281 3.078125 23.609375 3.070312 C 23.609375 3.066406 23.605469 3.058594 23.605469 3.054688 C 23.601562 3.046875 23.597656 3.042969 23.59375 3.035156 C 23.589844 3.027344 23.589844 3.023438 23.585938 3.015625 C 23.582031 3.011719 23.578125 3.007812 23.574219 3.003906 C 23.570312 2.996094 23.566406 2.992188 23.558594 2.984375 L 23.546875 2.972656 C 23.539062 2.96875 23.535156 2.964844 23.527344 2.960938 C 23.523438 2.957031 23.519531 2.953125 23.511719 2.949219 C 23.507812 2.945312 23.5 2.941406 23.492188 2.9375 C 23.488281 2.9375 23.480469 2.933594 23.476562 2.933594 L 23.453125 2.925781 C 23.449219 2.925781 23.441406 2.925781 23.4375 2.925781 L 23.414062 2.917969 L 13.488281 2.917969 C 13.371094 2.921875 13.304688 2.980469 13.285156 3.09375 L 11.382812 13.980469 C 11.367188 13.992188 11.359375 14.003906 11.347656 14.019531 C 10.664062 15.148438 10.320312 16.375 10.316406 17.699219 C 10.316406 17.976562 10.332031 18.25 10.367188 18.523438 C 10.15625 18.394531 9.871094 18.277344 9.585938 18.394531 C 9.28125 18.519531 9.152344 18.828125 9.050781 19.078125 L 9.039062 19.109375 C 8.984375 19.246094 8.867188 19.472656 8.714844 19.480469 C 8.632812 19.488281 8.527344 19.421875 8.417969 19.355469 C 8.257812 19.257812 8.054688 19.132812 7.808594 19.1875 C 7.554688 19.246094 7.363281 19.496094 7.339844 19.800781 C 7.335938 20.003906 7.371094 20.199219 7.445312 20.390625 L 7.453125 20.421875 C 7.503906 20.554688 7.527344 20.6875 7.523438 20.824219 C 7.417969 20.835938 7.316406 20.824219 7.21875 20.789062 C 7.183594 20.777344 7.148438 20.761719 7.113281 20.75 C 6.953125 20.6875 6.75 20.613281 6.535156 20.671875 C 6.257812 20.75 6.058594 21.035156 6.054688 21.367188 C 6.054688 21.488281 6.070312 21.605469 6.105469 21.722656 C 6.089844 21.707031 6.074219 21.695312 6.0625 21.683594 C 5.933594 21.566406 5.671875 21.324219 5.363281 21.429688 C 5.234375 21.480469 5.128906 21.566406 5.050781 21.679688 C 5.007812 21.730469 4.957031 21.792969 4.929688 21.796875 C 4.898438 21.804688 4.820312 21.734375 4.757812 21.679688 C 4.660156 21.589844 4.535156 21.476562 4.363281 21.449219 C 4.21875 21.425781 4.089844 21.460938 3.972656 21.554688 C 3.820312 21.679688 3.730469 21.839844 3.707031 22.039062 C 3.699219 22.222656 3.71875 22.398438 3.769531 22.574219 C 3.78125 22.628906 3.796875 22.6875 3.804688 22.742188 C 3.839844 22.929688 3.816406 23.082031 3.738281 23.148438 C 3.660156 23.214844 3.542969 23.214844 3.421875 23.226562 C 3.25 23.238281 3.039062 23.253906 2.863281 23.386719 C 2.734375 23.492188 2.664062 23.625 2.660156 23.792969 C 2.65625 23.828125 2.660156 23.867188 2.667969 23.902344 L 2.007812 23.902344 C 1.867188 23.902344 1.796875 23.972656 1.796875 24.113281 L 1.796875 25.621094 C 1.796875 25.765625 1.867188 25.835938 2.007812 25.835938 L 34.894531 25.835938 C 35.035156 25.835938 35.101562 25.765625 35.101562 25.621094 L 35.101562 24.113281 C 35.101562 23.972656 35.035156 23.902344 34.894531 23.902344 Z M 30.300781 21.394531 C 30.425781 21.414062 30.535156 21.472656 30.621094 21.566406 C 30.710938 21.664062 30.757812 21.773438 30.773438 21.902344 C 30.777344 21.976562 30.808594 22.03125 30.867188 22.070312 C 30.929688 22.109375 30.992188 22.113281 31.058594 22.089844 C 31.277344 22.003906 31.5 21.976562 31.734375 22.003906 C 31.875 22.027344 32.03125 22.15625 32.015625 22.28125 C 32.007812 22.324219 31.992188 22.367188 31.976562 22.410156 C 31.933594 22.523438 31.878906 22.675781 31.933594 22.839844 C 32.007812 23.023438 32.140625 23.132812 32.332031 23.164062 C 32.40625 23.175781 32.480469 23.183594 32.554688 23.1875 C 32.59375 23.1875 32.628906 23.1875 32.667969 23.195312 C 32.835938 23.222656 32.972656 23.304688 33.082031 23.441406 C 33.1875 23.574219 33.238281 23.730469 33.230469 23.90625 L 31.054688 23.90625 C 31.140625 23.699219 31.179688 23.484375 31.175781 23.261719 C 31.171875 23.035156 31.125 22.824219 31.035156 22.621094 C 30.941406 22.417969 30.8125 22.242188 30.648438 22.09375 C 30.484375 21.945312 30.296875 21.835938 30.085938 21.769531 L 29.761719 21.664062 C 29.886719 21.460938 30.066406 21.371094 30.300781 21.394531 Z M 22.910156 13.9375 L 21.066406 3.34375 L 23.230469 3.34375 L 25.074219 13.9375 Z M 13.664062 3.34375 L 20.640625 3.34375 L 22.484375 13.9375 L 11.816406 13.9375 Z M 11.636719 14.367188 L 25.207031 14.367188 C 25.804688 15.394531 26.101562 16.507812 26.105469 17.699219 C 26.105469 19.300781 25.453125 20.730469 24.214844 21.820312 C 24.109375 21.914062 24.105469 22.015625 24.195312 22.121094 C 24.289062 22.226562 24.386719 22.234375 24.492188 22.140625 C 24.945312 21.746094 25.332031 21.292969 25.65625 20.78125 L 29.960938 22.171875 C 30.328125 22.289062 30.578125 22.535156 30.699219 22.90625 C 30.714844 22.957031 30.730469 23.007812 30.738281 23.0625 C 30.707031 23.007812 30.667969 22.957031 30.628906 22.910156 C 30.09375 22.28125 29.101562 22.25 29.058594 22.246094 C 28.917969 22.242188 28.847656 22.3125 28.84375 22.453125 C 28.839844 22.597656 28.910156 22.667969 29.050781 22.671875 C 29.058594 22.671875 29.898438 22.703125 30.308594 23.1875 C 30.480469 23.394531 30.554688 23.632812 30.53125 23.902344 L 21.15625 23.902344 C 21.519531 23.796875 21.878906 23.675781 22.230469 23.53125 C 22.359375 23.476562 22.398438 23.382812 22.34375 23.25 C 22.292969 23.121094 22.199219 23.082031 22.070312 23.136719 C 20.886719 23.625 19.519531 23.894531 18.117188 23.902344 L 14.679688 23.902344 L 15.578125 23.730469 C 15.945312 23.660156 16.246094 23.480469 16.484375 23.1875 C 16.722656 22.898438 16.84375 22.566406 16.84375 22.1875 L 16.949219 22.195312 L 18.210938 22.195312 C 18.75 22.15625 19.304688 22.113281 19.835938 21.925781 C 20.453125 21.710938 20.921875 21.320312 21.164062 20.832031 C 21.457031 20.230469 21.347656 19.496094 20.902344 19.089844 C 20.523438 18.742188 19.992188 18.683594 19.578125 18.675781 C 19.503906 18.675781 19.429688 18.675781 19.359375 18.671875 C 19.011719 18.671875 18.683594 18.667969 18.390625 18.550781 C 18.167969 18.464844 17.957031 18.269531 17.886719 18.050781 C 18.265625 17.964844 18.539062 17.738281 18.539062 17.472656 C 18.539062 17.136719 18.09375 16.863281 17.546875 16.863281 C 17 16.863281 16.554688 17.136719 16.554688 17.472656 C 16.554688 17.753906 16.859375 17.988281 17.273438 18.0625 C 17.175781 18.296875 17.007812 18.460938 16.773438 18.550781 C 16.480469 18.667969 16.152344 18.671875 15.804688 18.671875 C 15.730469 18.671875 15.660156 18.671875 15.585938 18.675781 C 15.167969 18.6875 14.640625 18.746094 14.257812 19.089844 C 13.832031 19.480469 13.714844 20.167969 13.964844 20.757812 L 11.796875 21.042969 C 11.796875 21.042969 11.796875 21.042969 11.796875 21.039062 C 11.097656 20.089844 10.742188 18.96875 10.742188 17.699219 C 10.742188 16.507812 11.042969 15.398438 11.636719 14.367188 Z M 9.3125 23.902344 C 9.238281 23.714844 8.824219 22.515625 9.402344 21.542969 C 9.738281 20.984375 10.386719 20.636719 10.929688 20.429688 C 11.046875 20.664062 11.175781 20.890625 11.324219 21.105469 L 11.042969 21.144531 C 10.914062 21.167969 10.855469 21.246094 10.871094 21.382812 C 10.890625 21.515625 10.964844 21.578125 11.097656 21.566406 L 15.144531 21.03125 C 15.429688 20.996094 15.6875 21.058594 15.925781 21.222656 L 14.859375 21.417969 C 14.734375 21.441406 14.679688 21.519531 14.6875 21.644531 C 14.699219 21.773438 14.769531 21.835938 14.894531 21.839844 C 14.90625 21.839844 14.921875 21.839844 14.933594 21.839844 L 16.269531 21.59375 C 16.347656 21.730469 16.398438 21.875 16.417969 22.03125 C 16.421875 22.0625 16.421875 22.09375 16.425781 22.121094 L 15.121094 22.25 C 14.988281 22.261719 14.925781 22.335938 14.933594 22.46875 C 14.9375 22.605469 15.007812 22.671875 15.140625 22.675781 L 15.160156 22.675781 L 16.363281 22.554688 C 16.222656 22.976562 15.933594 23.226562 15.503906 23.3125 L 12.386719 23.902344 Z M 14.375 20.644531 C 14.167969 20.214844 14.238281 19.683594 14.542969 19.40625 C 14.820312 19.152344 15.25 19.109375 15.597656 19.101562 L 15.808594 19.101562 C 16.179688 19.101562 16.558594 19.09375 16.925781 18.953125 C 17.203125 18.839844 17.421875 18.65625 17.582031 18.398438 C 17.738281 18.660156 17.960938 18.84375 18.238281 18.953125 C 18.601562 19.09375 18.988281 19.097656 19.355469 19.101562 L 19.566406 19.101562 C 19.910156 19.109375 20.34375 19.152344 20.621094 19.40625 C 20.925781 19.683594 20.996094 20.214844 20.789062 20.644531 C 20.53125 21.167969 19.992188 21.421875 19.699219 21.523438 C 19.222656 21.691406 18.699219 21.730469 18.191406 21.769531 L 17.839844 21.769531 C 17.902344 21.664062 17.925781 21.550781 17.90625 21.429688 C 17.886719 21.308594 17.832031 21.210938 17.742188 21.128906 C 17.667969 21.070312 17.585938 21.027344 17.492188 21 C 17.472656 20.996094 17.449219 20.988281 17.429688 20.980469 C 17.414062 20.972656 17.394531 20.960938 17.378906 20.949219 C 17.378906 20.941406 17.386719 20.925781 17.390625 20.917969 C 17.398438 20.886719 17.410156 20.855469 17.414062 20.828125 C 17.445312 20.667969 17.414062 20.523438 17.320312 20.394531 C 17.195312 20.222656 17.035156 20.125 16.828125 20.097656 C 16.636719 20.078125 16.445312 20.089844 16.257812 20.140625 C 16.214844 19.933594 16.109375 19.761719 15.941406 19.632812 C 15.792969 19.523438 15.628906 19.476562 15.445312 19.492188 C 15.261719 19.511719 15.105469 19.585938 14.976562 19.71875 C 14.773438 19.945312 14.800781 20.34375 14.925781 20.628906 L 14.410156 20.699219 C 14.398438 20.679688 14.386719 20.660156 14.375 20.644531 Z M 15.394531 20.597656 C 15.386719 20.585938 15.378906 20.574219 15.371094 20.5625 C 15.25 20.421875 15.214844 20.089844 15.285156 20.011719 C 15.410156 19.886719 15.546875 19.875 15.695312 19.972656 C 15.828125 20.074219 15.871094 20.285156 15.886719 20.445312 C 15.894531 20.515625 15.929688 20.570312 15.988281 20.609375 C 16.050781 20.644531 16.113281 20.648438 16.179688 20.621094 C 16.371094 20.535156 16.570312 20.5 16.777344 20.523438 C 16.859375 20.535156 16.925781 20.574219 16.972656 20.640625 C 16.996094 20.671875 17.007812 20.703125 17 20.738281 C 16.996094 20.753906 16.992188 20.769531 16.988281 20.785156 C 16.960938 20.855469 16.949219 20.933594 16.957031 21.007812 C 16.972656 21.167969 17.089844 21.300781 17.273438 21.375 C 17.300781 21.386719 17.328125 21.398438 17.355469 21.40625 C 17.394531 21.417969 17.433594 21.433594 17.46875 21.457031 C 17.492188 21.484375 17.492188 21.511719 17.472656 21.542969 C 17.449219 21.570312 17.421875 21.578125 17.390625 21.5625 C 17.28125 21.496094 17.167969 21.476562 17.046875 21.515625 C 16.941406 21.542969 16.84375 21.585938 16.753906 21.648438 C 16.707031 21.503906 16.636719 21.371094 16.546875 21.246094 C 16.539062 21.234375 16.527344 21.21875 16.515625 21.207031 C 16.230469 20.835938 15.855469 20.632812 15.390625 20.597656 Z M 3.085938 23.808594 C 3.085938 23.777344 3.097656 23.75 3.125 23.730469 C 3.199219 23.671875 3.328125 23.660156 3.457031 23.652344 C 3.644531 23.640625 3.855469 23.613281 4.019531 23.46875 C 4.21875 23.300781 4.292969 23.011719 4.222656 22.664062 C 4.210938 22.601562 4.195312 22.535156 4.183594 22.472656 C 4.144531 22.347656 4.125 22.21875 4.128906 22.085938 C 4.140625 22.007812 4.171875 21.945312 4.230469 21.894531 C 4.25 21.875 4.273438 21.867188 4.300781 21.871094 C 4.371094 21.898438 4.433594 21.941406 4.484375 21.996094 C 4.605469 22.105469 4.769531 22.257812 5.003906 22.21875 C 5.1875 22.1875 5.296875 22.050781 5.378906 21.953125 C 5.410156 21.902344 5.453125 21.863281 5.503906 21.832031 C 5.578125 21.804688 5.734375 21.949219 5.785156 21.996094 C 5.972656 22.171875 6.269531 22.308594 6.53125 22.171875 C 6.648438 22.109375 6.679688 22.015625 6.628906 21.894531 C 6.554688 21.722656 6.476562 21.542969 6.480469 21.375 C 6.480469 21.253906 6.546875 21.109375 6.648438 21.082031 C 6.734375 21.058594 6.851562 21.101562 6.972656 21.148438 C 7.011719 21.164062 7.050781 21.179688 7.089844 21.191406 C 7.15625 21.214844 7.523438 21.332031 7.761719 21.1875 C 7.855469 21.136719 7.910156 21.054688 7.933594 20.949219 C 7.980469 20.714844 7.917969 20.488281 7.855469 20.292969 L 7.847656 20.261719 C 7.792969 20.121094 7.765625 19.980469 7.761719 19.832031 C 7.769531 19.722656 7.828125 19.621094 7.902344 19.605469 C 7.972656 19.589844 8.082031 19.648438 8.203125 19.722656 C 8.351562 19.8125 8.523438 19.917969 8.734375 19.90625 C 8.9375 19.898438 9.21875 19.78125 9.425781 19.273438 L 9.441406 19.242188 C 9.519531 19.046875 9.601562 18.847656 9.742188 18.789062 C 9.914062 18.722656 10.15625 18.878906 10.34375 19.027344 C 10.375 19.050781 10.414062 19.066406 10.457031 19.070312 C 10.527344 19.402344 10.625 19.726562 10.753906 20.042969 C 10.148438 20.277344 9.429688 20.671875 9.042969 21.324219 C 8.449219 22.316406 8.71875 23.457031 8.863281 23.902344 L 3.140625 23.902344 C 3.128906 23.867188 3.109375 23.835938 3.085938 23.808594 Z M 34.683594 25.410156 L 2.21875 25.410156 L 2.21875 24.328125 L 34.683594 24.328125 Z M 34.683594 25.410156 " fill-opacity="1" fill-rule="nonzero"/></g><path fill="#232323" d="M 8.160156 22.648438 C 8.035156 22.714844 8 22.808594 8.0625 22.933594 C 8.082031 22.972656 8.074219 23 8.039062 23.015625 C 8.003906 23.035156 7.976562 23.027344 7.957031 22.996094 C 7.890625 22.886719 7.804688 22.859375 7.691406 22.910156 C 7.574219 22.960938 7.539062 23.046875 7.574219 23.167969 C 7.574219 23.199219 7.558594 23.21875 7.53125 23.230469 C 7.46875 23.246094 7.414062 23.230469 7.371094 23.183594 C 7.308594 23.117188 7.273438 23.035156 7.269531 22.945312 C 7.25 22.804688 7.171875 22.742188 7.035156 22.757812 C 6.894531 22.777344 6.832031 22.855469 6.851562 22.996094 C 6.871094 23.191406 6.945312 23.355469 7.082031 23.492188 C 7.195312 23.605469 7.335938 23.664062 7.492188 23.664062 C 7.558594 23.664062 7.617188 23.652344 7.675781 23.632812 C 7.777344 23.59375 7.855469 23.527344 7.914062 23.4375 C 8.027344 23.460938 8.132812 23.445312 8.234375 23.390625 C 8.347656 23.328125 8.425781 23.234375 8.464844 23.109375 C 8.503906 22.984375 8.496094 22.863281 8.441406 22.746094 C 8.378906 22.621094 8.285156 22.585938 8.160156 22.648438 Z M 8.160156 22.648438 " fill-opacity="1" fill-rule="nonzero"/><path fill="#ffffff" d="M 21.449219 15.949219 L 20.882812 15.949219 L 20.285156 17.578125 L 20.851562 17.578125 Z M 21.449219 15.949219 " fill-opacity="0.5" fill-rule="nonzero"/><path fill="#ffffff" d="M 22.691406 15.949219 L 21.632812 15.949219 L 21.035156 17.578125 L 22 17.578125 C 22.191406 17.578125 22.351562 17.511719 22.488281 17.375 C 22.621094 17.238281 22.691406 17.074219 22.691406 16.878906 Z M 22.691406 15.949219 " fill-opacity="0.5" fill-rule="nonzero"/><path fill="#ffffff" d="M 14.445312 15.949219 L 13.878906 15.949219 L 13.28125 17.578125 L 13.851562 17.578125 Z M 14.445312 15.949219 " fill-opacity="0.5" fill-rule="nonzero"/><path fill="#ffffff" d="M 15.691406 15.949219 L 14.632812 15.949219 L 14.03125 17.578125 L 15 17.578125 C 15.1875 17.578125 15.351562 17.511719 15.488281 17.375 C 15.621094 17.238281 15.6875 17.074219 15.6875 16.878906 Z M 15.691406 15.949219 " fill-opacity="0.5" fill-rule="nonzero"/><g fill="#ffffff" fill-opacity="1"><g transform="translate(-0.173559, 32.357483)"><g><path d="M 0.453125 -2.140625 L 0.453125 -2.875 C 0.453125 -2.957031 0.453125 -3.066406 0.453125 -3.203125 C 0.460938 -3.347656 0.472656 -3.503906 0.484375 -3.671875 C 0.503906 -3.835938 0.53125 -3.992188 0.5625 -4.140625 C 0.59375 -4.296875 0.632812 -4.429688 0.6875 -4.546875 C 0.75 -4.671875 0.820312 -4.753906 0.90625 -4.796875 C 1 -4.835938 1.128906 -4.867188 1.296875 -4.890625 C 1.460938 -4.921875 1.628906 -4.9375 1.796875 -4.9375 C 1.972656 -4.945312 2.117188 -4.953125 2.234375 -4.953125 C 2.484375 -4.953125 2.734375 -4.914062 2.984375 -4.84375 C 3.242188 -4.769531 3.472656 -4.660156 3.671875 -4.515625 C 3.878906 -4.367188 4.046875 -4.1875 4.171875 -3.96875 C 4.296875 -3.75 4.359375 -3.492188 4.359375 -3.203125 C 4.359375 -2.890625 4.300781 -2.628906 4.1875 -2.421875 C 4.070312 -2.222656 3.921875 -2.066406 3.734375 -1.953125 C 3.554688 -1.835938 3.363281 -1.753906 3.15625 -1.703125 C 2.957031 -1.660156 2.765625 -1.628906 2.578125 -1.609375 C 2.390625 -1.597656 2.234375 -1.585938 2.109375 -1.578125 C 1.984375 -1.578125 1.90625 -1.566406 1.875 -1.546875 C 1.863281 -1.515625 1.847656 -1.46875 1.828125 -1.40625 C 1.816406 -1.351562 1.8125 -1.289062 1.8125 -1.21875 C 1.8125 -1.15625 1.8125 -1.109375 1.8125 -1.078125 C 1.8125 -0.992188 1.8125 -0.90625 1.8125 -0.8125 C 1.820312 -0.726562 1.828125 -0.644531 1.828125 -0.5625 C 1.828125 -0.414062 1.800781 -0.300781 1.75 -0.21875 C 1.695312 -0.144531 1.59375 -0.109375 1.4375 -0.109375 C 1.351562 -0.109375 1.265625 -0.113281 1.171875 -0.125 C 1.078125 -0.132812 0.988281 -0.15625 0.90625 -0.1875 C 0.820312 -0.226562 0.75 -0.304688 0.6875 -0.421875 C 0.632812 -0.535156 0.59375 -0.671875 0.5625 -0.828125 C 0.53125 -0.992188 0.503906 -1.160156 0.484375 -1.328125 C 0.472656 -1.503906 0.460938 -1.660156 0.453125 -1.796875 C 0.453125 -1.941406 0.453125 -2.054688 0.453125 -2.140625 Z M 1.8125 -3.671875 L 1.8125 -2.875 C 1.8125 -2.695312 1.84375 -2.585938 1.90625 -2.546875 C 1.976562 -2.515625 2.09375 -2.5 2.25 -2.5 C 2.488281 -2.5 2.6875 -2.570312 2.84375 -2.71875 C 3 -2.875 3.078125 -3.070312 3.078125 -3.3125 C 3.078125 -3.457031 3.03125 -3.578125 2.9375 -3.671875 C 2.851562 -3.773438 2.742188 -3.847656 2.609375 -3.890625 C 2.484375 -3.941406 2.351562 -3.96875 2.21875 -3.96875 L 2.046875 -3.96875 C 1.953125 -3.96875 1.890625 -3.9375 1.859375 -3.875 C 1.828125 -3.8125 1.8125 -3.742188 1.8125 -3.671875 Z M 1.8125 -3.671875 "/></g></g></g><g fill="#ffffff" fill-opacity="1"><g transform="translate(3.881882, 32.357483)"><g><path d="M 1.171875 -0.125 C 1.023438 -0.125 0.894531 -0.128906 0.78125 -0.140625 C 0.664062 -0.148438 0.570312 -0.191406 0.5 -0.265625 C 0.4375 -0.335938 0.40625 -0.46875 0.40625 -0.65625 C 0.40625 -0.769531 0.425781 -0.9375 0.46875 -1.15625 C 0.519531 -1.382812 0.585938 -1.644531 0.671875 -1.9375 C 0.765625 -2.226562 0.863281 -2.523438 0.96875 -2.828125 C 1.082031 -3.140625 1.195312 -3.429688 1.3125 -3.703125 C 1.425781 -3.984375 1.535156 -4.21875 1.640625 -4.40625 C 1.753906 -4.601562 1.851562 -4.734375 1.9375 -4.796875 C 2.007812 -4.847656 2.082031 -4.875 2.15625 -4.875 C 2.238281 -4.882812 2.320312 -4.890625 2.40625 -4.890625 C 2.550781 -4.890625 2.671875 -4.875 2.765625 -4.84375 C 2.859375 -4.820312 2.953125 -4.75 3.046875 -4.625 C 3.117188 -4.539062 3.203125 -4.398438 3.296875 -4.203125 C 3.390625 -4.003906 3.488281 -3.769531 3.59375 -3.5 C 3.695312 -3.238281 3.796875 -2.960938 3.890625 -2.671875 C 3.992188 -2.378906 4.082031 -2.09375 4.15625 -1.8125 C 4.238281 -1.539062 4.300781 -1.296875 4.34375 -1.078125 C 4.394531 -0.867188 4.421875 -0.707031 4.421875 -0.59375 C 4.421875 -0.476562 4.390625 -0.382812 4.328125 -0.3125 C 4.273438 -0.25 4.195312 -0.203125 4.09375 -0.171875 C 4 -0.148438 3.898438 -0.132812 3.796875 -0.125 C 3.691406 -0.125 3.597656 -0.125 3.515625 -0.125 C 3.378906 -0.125 3.285156 -0.144531 3.234375 -0.1875 C 3.191406 -0.226562 3.164062 -0.28125 3.15625 -0.34375 C 3.144531 -0.414062 3.140625 -0.488281 3.140625 -0.5625 C 3.140625 -0.644531 3.117188 -0.71875 3.078125 -0.78125 C 3.035156 -0.84375 2.957031 -0.894531 2.84375 -0.9375 C 2.726562 -0.988281 2.550781 -1.015625 2.3125 -1.015625 C 2.113281 -1.015625 1.96875 -0.988281 1.875 -0.9375 C 1.789062 -0.894531 1.734375 -0.84375 1.703125 -0.78125 C 1.679688 -0.71875 1.664062 -0.644531 1.65625 -0.5625 C 1.65625 -0.488281 1.644531 -0.421875 1.625 -0.359375 C 1.613281 -0.296875 1.570312 -0.238281 1.5 -0.1875 C 1.4375 -0.144531 1.328125 -0.125 1.171875 -0.125 Z M 2.359375 -1.984375 L 2.5 -1.984375 C 2.570312 -1.984375 2.628906 -2.003906 2.671875 -2.046875 C 2.710938 -2.085938 2.734375 -2.144531 2.734375 -2.21875 C 2.734375 -2.25 2.726562 -2.304688 2.71875 -2.390625 C 2.707031 -2.484375 2.6875 -2.582031 2.65625 -2.6875 C 2.632812 -2.800781 2.609375 -2.910156 2.578125 -3.015625 C 2.554688 -3.128906 2.53125 -3.21875 2.5 -3.28125 C 2.46875 -3.351562 2.429688 -3.390625 2.390625 -3.390625 C 2.367188 -3.390625 2.34375 -3.351562 2.3125 -3.28125 C 2.28125 -3.21875 2.25 -3.128906 2.21875 -3.015625 C 2.1875 -2.910156 2.15625 -2.800781 2.125 -2.6875 C 2.101562 -2.570312 2.085938 -2.46875 2.078125 -2.375 C 2.066406 -2.289062 2.0625 -2.234375 2.0625 -2.203125 C 2.0625 -2.117188 2.085938 -2.0625 2.140625 -2.03125 C 2.203125 -2 2.273438 -1.984375 2.359375 -1.984375 Z M 2.359375 -1.984375 "/></g></g></g><g fill="#ffffff" fill-opacity="1"><g transform="translate(8.277551, 32.357483)"><g><path d="M 4.5 -2.703125 L 4.5 -2.171875 C 4.5 -2.097656 4.5 -1.992188 4.5 -1.859375 C 4.5 -1.722656 4.492188 -1.570312 4.484375 -1.40625 C 4.472656 -1.25 4.453125 -1.09375 4.421875 -0.9375 C 4.398438 -0.78125 4.367188 -0.640625 4.328125 -0.515625 C 4.285156 -0.398438 4.226562 -0.316406 4.15625 -0.265625 C 4.070312 -0.203125 3.976562 -0.160156 3.875 -0.140625 C 3.769531 -0.117188 3.660156 -0.109375 3.546875 -0.109375 C 3.503906 -0.109375 3.457031 -0.113281 3.40625 -0.125 C 3.363281 -0.132812 3.320312 -0.144531 3.28125 -0.15625 C 3.21875 -0.195312 3.144531 -0.273438 3.0625 -0.390625 C 2.976562 -0.503906 2.890625 -0.640625 2.796875 -0.796875 C 2.710938 -0.960938 2.625 -1.132812 2.53125 -1.3125 C 2.445312 -1.488281 2.363281 -1.648438 2.28125 -1.796875 C 2.207031 -1.953125 2.132812 -2.078125 2.0625 -2.171875 C 2 -2.265625 1.945312 -2.3125 1.90625 -2.3125 C 1.875 -2.3125 1.847656 -2.285156 1.828125 -2.234375 C 1.816406 -2.179688 1.804688 -2.117188 1.796875 -2.046875 C 1.785156 -1.984375 1.78125 -1.914062 1.78125 -1.84375 C 1.78125 -1.78125 1.78125 -1.738281 1.78125 -1.71875 C 1.78125 -1.539062 1.785156 -1.359375 1.796875 -1.171875 C 1.804688 -0.992188 1.8125 -0.816406 1.8125 -0.640625 C 1.8125 -0.472656 1.769531 -0.34375 1.6875 -0.25 C 1.613281 -0.164062 1.492188 -0.125 1.328125 -0.125 C 1.242188 -0.125 1.144531 -0.132812 1.03125 -0.15625 C 0.914062 -0.175781 0.828125 -0.210938 0.765625 -0.265625 C 0.703125 -0.328125 0.648438 -0.4375 0.609375 -0.59375 C 0.566406 -0.757812 0.535156 -0.945312 0.515625 -1.15625 C 0.492188 -1.375 0.476562 -1.585938 0.46875 -1.796875 C 0.457031 -2.015625 0.453125 -2.210938 0.453125 -2.390625 C 0.453125 -2.578125 0.453125 -2.71875 0.453125 -2.8125 C 0.453125 -2.90625 0.453125 -3.023438 0.453125 -3.171875 C 0.460938 -3.316406 0.472656 -3.472656 0.484375 -3.640625 C 0.503906 -3.816406 0.53125 -3.984375 0.5625 -4.140625 C 0.601562 -4.304688 0.65625 -4.445312 0.71875 -4.5625 C 0.78125 -4.675781 0.859375 -4.753906 0.953125 -4.796875 C 1.035156 -4.828125 1.109375 -4.84375 1.171875 -4.84375 C 1.242188 -4.84375 1.316406 -4.84375 1.390625 -4.84375 C 1.523438 -4.84375 1.648438 -4.789062 1.765625 -4.6875 C 1.878906 -4.59375 1.984375 -4.460938 2.078125 -4.296875 C 2.179688 -4.140625 2.273438 -3.972656 2.359375 -3.796875 C 2.453125 -3.617188 2.535156 -3.445312 2.609375 -3.28125 C 2.679688 -3.125 2.75 -2.992188 2.8125 -2.890625 C 2.882812 -2.796875 2.945312 -2.75 3 -2.75 C 3.050781 -2.75 3.085938 -2.785156 3.109375 -2.859375 C 3.128906 -2.941406 3.144531 -3.039062 3.15625 -3.15625 C 3.175781 -3.269531 3.1875 -3.375 3.1875 -3.46875 C 3.1875 -3.570312 3.1875 -3.644531 3.1875 -3.6875 C 3.1875 -3.8125 3.179688 -3.929688 3.171875 -4.046875 C 3.160156 -4.171875 3.15625 -4.296875 3.15625 -4.421875 C 3.15625 -4.554688 3.175781 -4.648438 3.21875 -4.703125 C 3.269531 -4.765625 3.332031 -4.800781 3.40625 -4.8125 C 3.488281 -4.832031 3.585938 -4.84375 3.703125 -4.84375 C 3.773438 -4.84375 3.859375 -4.832031 3.953125 -4.8125 C 4.046875 -4.789062 4.117188 -4.753906 4.171875 -4.703125 C 4.242188 -4.628906 4.300781 -4.503906 4.34375 -4.328125 C 4.394531 -4.160156 4.429688 -3.96875 4.453125 -3.75 C 4.472656 -3.539062 4.484375 -3.335938 4.484375 -3.140625 C 4.492188 -2.953125 4.5 -2.804688 4.5 -2.703125 Z M 4.5 -2.703125 "/></g></g></g><g fill="#ffffff" fill-opacity="1"><g transform="translate(12.809312, 32.357483)"><g><path d="M 2.140625 -4.953125 C 2.492188 -4.953125 2.820312 -4.890625 3.125 -4.765625 C 3.425781 -4.640625 3.691406 -4.46875 3.921875 -4.25 C 4.148438 -4.03125 4.328125 -3.769531 4.453125 -3.46875 C 4.578125 -3.175781 4.640625 -2.851562 4.640625 -2.5 C 4.640625 -2.144531 4.578125 -1.816406 4.453125 -1.515625 C 4.328125 -1.222656 4.144531 -0.960938 3.90625 -0.734375 C 3.675781 -0.503906 3.410156 -0.328125 3.109375 -0.203125 C 2.804688 -0.078125 2.484375 -0.015625 2.140625 -0.015625 C 1.960938 -0.015625 1.769531 -0.0195312 1.5625 -0.03125 C 1.363281 -0.0390625 1.179688 -0.078125 1.015625 -0.140625 C 0.890625 -0.191406 0.785156 -0.289062 0.703125 -0.4375 C 0.628906 -0.582031 0.570312 -0.753906 0.53125 -0.953125 C 0.5 -1.160156 0.476562 -1.367188 0.46875 -1.578125 C 0.457031 -1.796875 0.453125 -2 0.453125 -2.1875 C 0.453125 -2.375 0.453125 -2.519531 0.453125 -2.625 C 0.453125 -2.71875 0.453125 -2.84375 0.453125 -3 C 0.453125 -3.164062 0.457031 -3.335938 0.46875 -3.515625 C 0.488281 -3.703125 0.515625 -3.878906 0.546875 -4.046875 C 0.578125 -4.222656 0.625 -4.375 0.6875 -4.5 C 0.75 -4.632812 0.820312 -4.734375 0.90625 -4.796875 C 0.96875 -4.828125 1.050781 -4.851562 1.15625 -4.875 C 1.269531 -4.894531 1.390625 -4.910156 1.515625 -4.921875 C 1.640625 -4.929688 1.757812 -4.9375 1.875 -4.9375 C 1.988281 -4.945312 2.078125 -4.953125 2.140625 -4.953125 Z M 3.3125 -2.59375 C 3.3125 -3.007812 3.21875 -3.332031 3.03125 -3.5625 C 2.84375 -3.800781 2.53125 -3.921875 2.09375 -3.921875 C 2.019531 -3.921875 1.960938 -3.898438 1.921875 -3.859375 C 1.890625 -3.816406 1.863281 -3.765625 1.84375 -3.703125 C 1.820312 -3.640625 1.8125 -3.570312 1.8125 -3.5 C 1.8125 -3.289062 1.804688 -3.078125 1.796875 -2.859375 C 1.796875 -2.648438 1.796875 -2.441406 1.796875 -2.234375 C 1.796875 -2.179688 1.796875 -2.09375 1.796875 -1.96875 C 1.804688 -1.84375 1.816406 -1.707031 1.828125 -1.5625 C 1.835938 -1.414062 1.859375 -1.289062 1.890625 -1.1875 C 1.921875 -1.09375 1.972656 -1.046875 2.046875 -1.046875 C 2.390625 -1.046875 2.648438 -1.109375 2.828125 -1.234375 C 3.015625 -1.367188 3.140625 -1.550781 3.203125 -1.78125 C 3.273438 -2.019531 3.3125 -2.289062 3.3125 -2.59375 Z M 3.3125 -2.59375 "/></g></g></g><g fill="#ffffff" fill-opacity="1"><g transform="translate(17.170959, 32.357483)"><g><path d="M 1.171875 -0.125 C 1.023438 -0.125 0.894531 -0.128906 0.78125 -0.140625 C 0.664062 -0.148438 0.570312 -0.191406 0.5 -0.265625 C 0.4375 -0.335938 0.40625 -0.46875 0.40625 -0.65625 C 0.40625 -0.769531 0.425781 -0.9375 0.46875 -1.15625 C 0.519531 -1.382812 0.585938 -1.644531 0.671875 -1.9375 C 0.765625 -2.226562 0.863281 -2.523438 0.96875 -2.828125 C 1.082031 -3.140625 1.195312 -3.429688 1.3125 -3.703125 C 1.425781 -3.984375 1.535156 -4.21875 1.640625 -4.40625 C 1.753906 -4.601562 1.851562 -4.734375 1.9375 -4.796875 C 2.007812 -4.847656 2.082031 -4.875 2.15625 -4.875 C 2.238281 -4.882812 2.320312 -4.890625 2.40625 -4.890625 C 2.550781 -4.890625 2.671875 -4.875 2.765625 -4.84375 C 2.859375 -4.820312 2.953125 -4.75 3.046875 -4.625 C 3.117188 -4.539062 3.203125 -4.398438 3.296875 -4.203125 C 3.390625 -4.003906 3.488281 -3.769531 3.59375 -3.5 C 3.695312 -3.238281 3.796875 -2.960938 3.890625 -2.671875 C 3.992188 -2.378906 4.082031 -2.09375 4.15625 -1.8125 C 4.238281 -1.539062 4.300781 -1.296875 4.34375 -1.078125 C 4.394531 -0.867188 4.421875 -0.707031 4.421875 -0.59375 C 4.421875 -0.476562 4.390625 -0.382812 4.328125 -0.3125 C 4.273438 -0.25 4.195312 -0.203125 4.09375 -0.171875 C 4 -0.148438 3.898438 -0.132812 3.796875 -0.125 C 3.691406 -0.125 3.597656 -0.125 3.515625 -0.125 C 3.378906 -0.125 3.285156 -0.144531 3.234375 -0.1875 C 3.191406 -0.226562 3.164062 -0.28125 3.15625 -0.34375 C 3.144531 -0.414062 3.140625 -0.488281 3.140625 -0.5625 C 3.140625 -0.644531 3.117188 -0.71875 3.078125 -0.78125 C 3.035156 -0.84375 2.957031 -0.894531 2.84375 -0.9375 C 2.726562 -0.988281 2.550781 -1.015625 2.3125 -1.015625 C 2.113281 -1.015625 1.96875 -0.988281 1.875 -0.9375 C 1.789062 -0.894531 1.734375 -0.84375 1.703125 -0.78125 C 1.679688 -0.71875 1.664062 -0.644531 1.65625 -0.5625 C 1.65625 -0.488281 1.644531 -0.421875 1.625 -0.359375 C 1.613281 -0.296875 1.570312 -0.238281 1.5 -0.1875 C 1.4375 -0.144531 1.328125 -0.125 1.171875 -0.125 Z M 2.359375 -1.984375 L 2.5 -1.984375 C 2.570312 -1.984375 2.628906 -2.003906 2.671875 -2.046875 C 2.710938 -2.085938 2.734375 -2.144531 2.734375 -2.21875 C 2.734375 -2.25 2.726562 -2.304688 2.71875 -2.390625 C 2.707031 -2.484375 2.6875 -2.582031 2.65625 -2.6875 C 2.632812 -2.800781 2.609375 -2.910156 2.578125 -3.015625 C 2.554688 -3.128906 2.53125 -3.21875 2.5 -3.28125 C 2.46875 -3.351562 2.429688 -3.390625 2.390625 -3.390625 C 2.367188 -3.390625 2.34375 -3.351562 2.3125 -3.28125 C 2.28125 -3.21875 2.25 -3.128906 2.21875 -3.015625 C 2.1875 -2.910156 2.15625 -2.800781 2.125 -2.6875 C 2.101562 -2.570312 2.085938 -2.46875 2.078125 -2.375 C 2.066406 -2.289062 2.0625 -2.234375 2.0625 -2.203125 C 2.0625 -2.117188 2.085938 -2.0625 2.140625 -2.03125 C 2.203125 -2 2.273438 -1.984375 2.359375 -1.984375 Z M 2.359375 -1.984375 "/></g></g></g><g fill="#ffffff" fill-opacity="1"><g transform="translate(21.566628, 32.357483)"><g><path d="M 0.453125 -2.109375 L 0.453125 -2.71875 C 0.453125 -3.070312 0.460938 -3.378906 0.484375 -3.640625 C 0.503906 -3.910156 0.5625 -4.132812 0.65625 -4.3125 C 0.75 -4.5 0.910156 -4.640625 1.140625 -4.734375 C 1.367188 -4.835938 1.6875 -4.890625 2.09375 -4.890625 C 2.164062 -4.890625 2.269531 -4.882812 2.40625 -4.875 C 2.539062 -4.875 2.6875 -4.863281 2.84375 -4.84375 C 3 -4.832031 3.140625 -4.8125 3.265625 -4.78125 C 3.390625 -4.757812 3.472656 -4.726562 3.515625 -4.6875 C 3.585938 -4.613281 3.632812 -4.519531 3.65625 -4.40625 C 3.675781 -4.289062 3.6875 -4.179688 3.6875 -4.078125 C 3.6875 -3.984375 3.65625 -3.914062 3.59375 -3.875 C 3.53125 -3.84375 3.457031 -3.820312 3.375 -3.8125 C 3.289062 -3.800781 3.210938 -3.796875 3.140625 -3.796875 C 3.066406 -3.796875 2.988281 -3.800781 2.90625 -3.8125 C 2.820312 -3.820312 2.738281 -3.828125 2.65625 -3.828125 L 2.3125 -3.828125 C 2.113281 -3.828125 1.988281 -3.785156 1.9375 -3.703125 C 1.882812 -3.617188 1.859375 -3.484375 1.859375 -3.296875 C 1.859375 -3.160156 1.882812 -3.0625 1.9375 -3 C 1.988281 -2.945312 2.0625 -2.914062 2.15625 -2.90625 C 2.257812 -2.90625 2.363281 -2.90625 2.46875 -2.90625 C 2.59375 -2.90625 2.71875 -2.90625 2.84375 -2.90625 C 2.976562 -2.914062 3.109375 -2.914062 3.234375 -2.90625 C 3.316406 -2.894531 3.382812 -2.867188 3.4375 -2.828125 C 3.519531 -2.785156 3.566406 -2.710938 3.578125 -2.609375 C 3.585938 -2.503906 3.59375 -2.410156 3.59375 -2.328125 C 3.59375 -2.210938 3.5625 -2.125 3.5 -2.0625 C 3.4375 -2 3.351562 -1.957031 3.25 -1.9375 C 3.15625 -1.925781 3.0625 -1.921875 2.96875 -1.921875 C 2.894531 -1.921875 2.820312 -1.921875 2.75 -1.921875 C 2.675781 -1.929688 2.601562 -1.9375 2.53125 -1.9375 C 2.28125 -1.9375 2.101562 -1.878906 2 -1.765625 C 1.90625 -1.648438 1.859375 -1.46875 1.859375 -1.21875 C 1.859375 -1.132812 1.859375 -1.046875 1.859375 -0.953125 C 1.867188 -0.867188 1.875 -0.78125 1.875 -0.6875 C 1.875 -0.519531 1.847656 -0.378906 1.796875 -0.265625 C 1.753906 -0.160156 1.632812 -0.109375 1.4375 -0.109375 C 1.351562 -0.109375 1.265625 -0.109375 1.171875 -0.109375 C 1.078125 -0.117188 0.988281 -0.140625 0.90625 -0.171875 C 0.8125 -0.203125 0.738281 -0.273438 0.6875 -0.390625 C 0.632812 -0.515625 0.59375 -0.65625 0.5625 -0.8125 C 0.53125 -0.96875 0.503906 -1.128906 0.484375 -1.296875 C 0.472656 -1.460938 0.460938 -1.617188 0.453125 -1.765625 C 0.453125 -1.910156 0.453125 -2.023438 0.453125 -2.109375 Z M 0.453125 -2.109375 "/></g></g></g><g fill="#ffffff" fill-opacity="1"><g transform="translate(25.247817, 32.357483)"><g><path d="M 2.078125 -3.21875 L 2.078125 -2.03125 C 2.078125 -1.945312 2.078125 -1.828125 2.078125 -1.671875 C 2.078125 -1.523438 2.066406 -1.367188 2.046875 -1.203125 C 2.035156 -1.035156 2.019531 -0.878906 2 -0.734375 C 1.976562 -0.597656 1.953125 -0.492188 1.921875 -0.421875 C 1.867188 -0.304688 1.789062 -0.21875 1.6875 -0.15625 C 1.59375 -0.101562 1.488281 -0.078125 1.375 -0.078125 C 1.289062 -0.078125 1.207031 -0.0820312 1.125 -0.09375 C 1.039062 -0.101562 0.960938 -0.128906 0.890625 -0.171875 C 0.828125 -0.203125 0.773438 -0.273438 0.734375 -0.390625 C 0.691406 -0.515625 0.65625 -0.65625 0.625 -0.8125 C 0.601562 -0.96875 0.585938 -1.125 0.578125 -1.28125 C 0.566406 -1.445312 0.554688 -1.597656 0.546875 -1.734375 C 0.546875 -1.867188 0.546875 -1.972656 0.546875 -2.046875 C 0.546875 -2.191406 0.539062 -2.335938 0.53125 -2.484375 C 0.53125 -2.628906 0.53125 -2.773438 0.53125 -2.921875 C 0.53125 -2.992188 0.53125 -3.097656 0.53125 -3.234375 C 0.539062 -3.378906 0.550781 -3.53125 0.5625 -3.6875 C 0.570312 -3.851562 0.59375 -4.007812 0.625 -4.15625 C 0.65625 -4.3125 0.691406 -4.445312 0.734375 -4.5625 C 0.785156 -4.675781 0.847656 -4.753906 0.921875 -4.796875 C 0.984375 -4.828125 1.039062 -4.847656 1.09375 -4.859375 C 1.15625 -4.878906 1.21875 -4.890625 1.28125 -4.890625 C 1.375 -4.890625 1.453125 -4.882812 1.515625 -4.875 C 1.585938 -4.875 1.664062 -4.847656 1.75 -4.796875 C 1.820312 -4.753906 1.878906 -4.660156 1.921875 -4.515625 C 1.972656 -4.378906 2.007812 -4.226562 2.03125 -4.0625 C 2.050781 -3.894531 2.0625 -3.734375 2.0625 -3.578125 C 2.070312 -3.421875 2.078125 -3.300781 2.078125 -3.21875 Z M 2.078125 -3.21875 "/></g></g></g><g fill="#ffffff" fill-opacity="1"><g transform="translate(27.466023, 32.357483)"><g><path d="M 1.875 -2.53125 C 1.875 -2.445312 1.875 -2.34375 1.875 -2.21875 C 1.882812 -2.09375 1.894531 -1.960938 1.90625 -1.828125 C 1.925781 -1.703125 1.957031 -1.585938 2 -1.484375 C 2.050781 -1.378906 2.125 -1.300781 2.21875 -1.25 C 2.28125 -1.21875 2.347656 -1.195312 2.421875 -1.1875 C 2.492188 -1.175781 2.566406 -1.171875 2.640625 -1.171875 C 2.796875 -1.171875 2.953125 -1.171875 3.109375 -1.171875 C 3.265625 -1.179688 3.414062 -1.1875 3.5625 -1.1875 C 3.78125 -1.1875 3.890625 -1.078125 3.890625 -0.859375 C 3.890625 -0.773438 3.878906 -0.6875 3.859375 -0.59375 C 3.835938 -0.507812 3.796875 -0.4375 3.734375 -0.375 C 3.628906 -0.257812 3.5 -0.179688 3.34375 -0.140625 C 3.1875 -0.0976562 3.035156 -0.078125 2.890625 -0.078125 C 2.734375 -0.078125 2.550781 -0.078125 2.34375 -0.078125 C 2.132812 -0.078125 1.921875 -0.0859375 1.703125 -0.109375 C 1.492188 -0.128906 1.300781 -0.175781 1.125 -0.25 C 0.945312 -0.320312 0.804688 -0.429688 0.703125 -0.578125 C 0.628906 -0.679688 0.578125 -0.789062 0.546875 -0.90625 C 0.515625 -1.019531 0.492188 -1.140625 0.484375 -1.265625 C 0.472656 -1.453125 0.460938 -1.632812 0.453125 -1.8125 C 0.453125 -1.988281 0.453125 -2.171875 0.453125 -2.359375 C 0.453125 -2.453125 0.453125 -2.570312 0.453125 -2.71875 C 0.460938 -2.875 0.46875 -3.039062 0.46875 -3.21875 C 0.476562 -3.394531 0.488281 -3.566406 0.5 -3.734375 C 0.519531 -3.910156 0.539062 -4.066406 0.5625 -4.203125 C 0.59375 -4.347656 0.628906 -4.457031 0.671875 -4.53125 C 0.753906 -4.675781 0.859375 -4.765625 0.984375 -4.796875 C 1.109375 -4.835938 1.25 -4.859375 1.40625 -4.859375 C 1.53125 -4.859375 1.628906 -4.8125 1.703125 -4.71875 C 1.773438 -4.625 1.828125 -4.503906 1.859375 -4.359375 C 1.890625 -4.222656 1.90625 -4.085938 1.90625 -3.953125 C 1.914062 -3.816406 1.921875 -3.707031 1.921875 -3.625 C 1.921875 -3.5 1.921875 -3.375 1.921875 -3.25 C 1.921875 -3.125 1.914062 -3 1.90625 -2.875 C 1.894531 -2.820312 1.882812 -2.765625 1.875 -2.703125 C 1.875 -2.648438 1.875 -2.59375 1.875 -2.53125 Z M 1.875 -2.53125 "/></g></g></g><g fill="#ffffff" fill-opacity="1"><g transform="translate(31.283304, 32.357483)"><g><path d="M 1.75 -0.609375 C 1.75 -0.453125 1.722656 -0.332031 1.671875 -0.25 C 1.617188 -0.164062 1.503906 -0.125 1.328125 -0.125 C 1.253906 -0.125 1.175781 -0.125 1.09375 -0.125 C 1.019531 -0.132812 0.945312 -0.160156 0.875 -0.203125 C 0.789062 -0.253906 0.71875 -0.351562 0.65625 -0.5 C 0.601562 -0.644531 0.5625 -0.8125 0.53125 -1 C 0.5 -1.195312 0.476562 -1.394531 0.46875 -1.59375 C 0.457031 -1.789062 0.445312 -1.972656 0.4375 -2.140625 C 0.4375 -2.316406 0.4375 -2.453125 0.4375 -2.546875 C 0.4375 -2.660156 0.441406 -2.804688 0.453125 -2.984375 C 0.460938 -3.160156 0.472656 -3.34375 0.484375 -3.53125 C 0.492188 -3.71875 0.515625 -3.894531 0.546875 -4.0625 C 0.578125 -4.226562 0.617188 -4.363281 0.671875 -4.46875 C 0.703125 -4.539062 0.742188 -4.601562 0.796875 -4.65625 C 0.847656 -4.71875 0.914062 -4.757812 1 -4.78125 C 1.070312 -4.800781 1.144531 -4.816406 1.21875 -4.828125 C 1.289062 -4.835938 1.363281 -4.84375 1.4375 -4.84375 C 1.5 -4.84375 1.554688 -4.835938 1.609375 -4.828125 C 1.660156 -4.816406 1.707031 -4.800781 1.75 -4.78125 C 1.820312 -4.75 1.894531 -4.671875 1.96875 -4.546875 C 2.039062 -4.429688 2.109375 -4.285156 2.171875 -4.109375 C 2.234375 -3.941406 2.296875 -3.769531 2.359375 -3.59375 C 2.421875 -3.414062 2.476562 -3.242188 2.53125 -3.078125 C 2.59375 -2.921875 2.65625 -2.796875 2.71875 -2.703125 C 2.78125 -2.609375 2.835938 -2.5625 2.890625 -2.5625 C 2.984375 -2.5625 3.070312 -2.617188 3.15625 -2.734375 C 3.238281 -2.859375 3.316406 -3.015625 3.390625 -3.203125 C 3.460938 -3.390625 3.53125 -3.582031 3.59375 -3.78125 C 3.664062 -3.976562 3.734375 -4.160156 3.796875 -4.328125 C 3.859375 -4.492188 3.921875 -4.609375 3.984375 -4.671875 C 4.066406 -4.765625 4.171875 -4.816406 4.296875 -4.828125 C 4.421875 -4.835938 4.539062 -4.84375 4.65625 -4.84375 C 4.78125 -4.84375 4.882812 -4.816406 4.96875 -4.765625 C 5.0625 -4.722656 5.132812 -4.648438 5.1875 -4.546875 C 5.28125 -4.367188 5.34375 -4.171875 5.375 -3.953125 C 5.414062 -3.734375 5.441406 -3.507812 5.453125 -3.28125 C 5.460938 -3.050781 5.46875 -2.835938 5.46875 -2.640625 C 5.46875 -2.566406 5.46875 -2.492188 5.46875 -2.421875 C 5.476562 -2.347656 5.484375 -2.273438 5.484375 -2.203125 C 5.484375 -2.066406 5.476562 -1.910156 5.46875 -1.734375 C 5.457031 -1.554688 5.4375 -1.375 5.40625 -1.1875 C 5.382812 -1.007812 5.347656 -0.835938 5.296875 -0.671875 C 5.242188 -0.515625 5.175781 -0.382812 5.09375 -0.28125 C 5.007812 -0.195312 4.921875 -0.148438 4.828125 -0.140625 C 4.742188 -0.140625 4.644531 -0.140625 4.53125 -0.140625 C 4.363281 -0.140625 4.253906 -0.175781 4.203125 -0.25 C 4.148438 -0.320312 4.125 -0.4375 4.125 -0.59375 C 4.125 -0.84375 4.128906 -1.09375 4.140625 -1.34375 C 4.148438 -1.601562 4.15625 -1.859375 4.15625 -2.109375 C 4.15625 -2.160156 4.148438 -2.207031 4.140625 -2.25 C 4.128906 -2.289062 4.117188 -2.335938 4.109375 -2.390625 C 4.035156 -2.390625 3.976562 -2.34375 3.9375 -2.25 C 3.90625 -2.164062 3.867188 -2.054688 3.828125 -1.921875 C 3.796875 -1.785156 3.75 -1.648438 3.6875 -1.515625 C 3.625 -1.390625 3.53125 -1.28125 3.40625 -1.1875 C 3.289062 -1.101562 3.128906 -1.0625 2.921875 -1.0625 C 2.742188 -1.0625 2.59375 -1.101562 2.46875 -1.1875 C 2.351562 -1.28125 2.257812 -1.390625 2.1875 -1.515625 C 2.125 -1.648438 2.070312 -1.78125 2.03125 -1.90625 C 1.988281 -2.039062 1.953125 -2.148438 1.921875 -2.234375 C 1.890625 -2.328125 1.847656 -2.375 1.796875 -2.375 C 1.773438 -2.363281 1.757812 -2.3125 1.75 -2.21875 C 1.738281 -2.125 1.734375 -2.023438 1.734375 -1.921875 C 1.734375 -1.828125 1.734375 -1.757812 1.734375 -1.71875 C 1.734375 -1.539062 1.734375 -1.359375 1.734375 -1.171875 C 1.742188 -0.984375 1.75 -0.796875 1.75 -0.609375 Z M 1.75 -0.609375 "/></g></g></g></svg>